
<svg width="600" height="200" viewBox="0 0 600 200" xmlns="http://www.w3.org/2000/svg">
  <defs>
    <linearGradient id="logoBgGrad" x1="0%" y1="0%" x2="0%" y2="100%">
      <stop offset="0%" stop-color="#FF1A38"/>
      <stop offset="100%" stop-color="#E50024"/>
    </linearGradient>
    <filter id="logoDropShadow" x="-10%" y="-10%" width="120%" height="130%" filterUnits="userSpaceOnUse">
      <feDropShadow dx="0" dy="6" stdDeviation="8" flood-color="#000000" flood-opacity="0.2"/>
    </filter>
  </defs>

  <g filter="url(#logoDropShadow)">
    <rect x="20" y="25" width="150" height="150" rx="38" fill="url(#logoBgGrad)"/>
  </g>

  <g transform="translate(-52, -28) scale(0.64)">
    <rect x="175" y="165" width="46" height="182" rx="23" fill="#FFFFFF"/>
    <path d="M198 165 C208 165, 218 171, 226 178 L330 240 C345 249, 345 263, 330 272 L215 342 C204 349, 198 343, 198 332 Z" fill="#FFFFFF"/>
    <path d="M198 230 L310 256 L198 320 Z" fill="#D9D9D9" opacity="0.85"/>
    <path d="M198 165 L330 256 L198 245 Z" fill="#FFFFFF"/>
  </g>

  <text x="195" y="126" font-family="system-ui, -apple-system, BlinkMacSystemFont, 'Segoe UI', Roboto, sans-serif" font-weight="800" font-size="78" letter-spacing="-1.5">
    <tspan fill="#111111">Next</tspan><tspan fill="#FF1A38">Tube</tspan>
  </text>
</svg>
